<?xml version="1.0" encoding="utf-8"?>
<svg version="1.1" xmlns:xlink="http://www.w3.org/1999/xlink" width="115px" height="112px" xmlns="http://www.w3.org/2000/svg">
  <g transform="matrix(1 0 0 1 -96 -194 )">
    <path d="M 97 199  A 4 4 0 0 1 101 195 L 206 195  A 4 4 0 0 1 210 199 L 210 301  A 4 4 0 0 1 206 305 L 101 305  A 4 4 0 0 1 97 301 L 97 199  Z " fill-rule="nonzero" fill="#ffffff" stroke="none" />
    <path d="M 96.5 199  A 4.5 4.5 0 0 1 101 194.5 L 206 194.5  A 4.5 4.5 0 0 1 210.5 199 L 210.5 301  A 4.5 4.5 0 0 1 206 305.5 L 101 305.5  A 4.5 4.5 0 0 1 96.5 301 L 96.5 199  Z " stroke-width="1" stroke-dasharray="1,1" stroke="#797979" fill="none" stroke-dashoffset="0.5" />
  </g>
</svg>