<?xml version="1.0" encoding="utf-8"?>
<svg version="1.1" xmlns:xlink="http://www.w3.org/1999/xlink" width="12px" height="12px" viewBox="548 273  12 12" xmlns="http://www.w3.org/2000/svg">
  <path d="M 548.5 274  A 0.5 0.5 0 0 1 549 273.5 L 559 273.5  A 0.5 0.5 0 0 1 559.5 274 L 559.5 284  A 0.5 0.5 0 0 1 559 284.5 L 549 284.5  A 0.5 0.5 0 0 1 548.5 284 L 548.5 274  Z " fill-rule="nonzero" fill="#ffffff" stroke="none" />
  <path d="M 548.5 274  A 0.5 0.5 0 0 1 549 273.5 L 559 273.5  A 0.5 0.5 0 0 1 559.5 274 L 559.5 284  A 0.5 0.5 0 0 1 559 284.5 L 549 284.5  A 0.5 0.5 0 0 1 548.5 284 L 548.5 274  Z " stroke-width="1" stroke="#797979" fill="none" />
</svg>