<?xml version="1.0" encoding="utf-8"?>
<svg version="1.1" xmlns:xlink="http://www.w3.org/1999/xlink" width="12px" height="12px" viewBox="548 244  12 12" xmlns="http://www.w3.org/2000/svg">
  <path d="M 548.5 245  A 0.5 0.5 0 0 1 549 244.5 L 559 244.5  A 0.5 0.5 0 0 1 559.5 245 L 559.5 255  A 0.5 0.5 0 0 1 559 255.5 L 549 255.5  A 0.5 0.5 0 0 1 548.5 255 L 548.5 245  Z " fill-rule="nonzero" fill="#ffffff" stroke="none" />
  <path d="M 548.5 245  A 0.5 0.5 0 0 1 549 244.5 L 559 244.5  A 0.5 0.5 0 0 1 559.5 245 L 559.5 255  A 0.5 0.5 0 0 1 559 255.5 L 549 255.5  A 0.5 0.5 0 0 1 548.5 255 L 548.5 245  Z " stroke-width="1" stroke="#797979" fill="none" />
  <path d="M 550.571428571429 250  L 553.142857142857 252.571428571429  L 557.428571428571 246.571428571429  " stroke-width="2.57142857142857" stroke="#797979" fill="none" />
</svg>