<?xml version="1.0" encoding="utf-8"?>
<svg version="1.1" xmlns:xlink="http://www.w3.org/1999/xlink" width="12px" height="12px" viewBox="691 273  12 12" xmlns="http://www.w3.org/2000/svg">
  <path d="M 691.5 274  A 0.5 0.5 0 0 1 692 273.5 L 702 273.5  A 0.5 0.5 0 0 1 702.5 274 L 702.5 284  A 0.5 0.5 0 0 1 702 284.5 L 692 284.5  A 0.5 0.5 0 0 1 691.5 284 L 691.5 274  Z " fill-rule="nonzero" fill="#f0f0f0" stroke="none" />
  <path d="M 691.5 274  A 0.5 0.5 0 0 1 692 273.5 L 702 273.5  A 0.5 0.5 0 0 1 702.5 274 L 702.5 284  A 0.5 0.5 0 0 1 702 284.5 L 692 284.5  A 0.5 0.5 0 0 1 691.5 284 L 691.5 274  Z " stroke-width="1" stroke="#797979" fill="none" />
  <path d="M 693.571428571429 279  L 696.142857142857 281.571428571429  L 700.428571428571 275.571428571429  " stroke-width="2.57142857142857" stroke="#797979" fill="none" />
</svg>