<?xml version="1.0" encoding="utf-8"?>
<svg version="1.1" xmlns:xlink="http://www.w3.org/1999/xlink" width="12px" height="12px" viewBox="691 244  12 12" xmlns="http://www.w3.org/2000/svg">
  <path d="M 691.5 245  A 0.5 0.5 0 0 1 692 244.5 L 702 244.5  A 0.5 0.5 0 0 1 702.5 245 L 702.5 255  A 0.5 0.5 0 0 1 702 255.5 L 692 255.5  A 0.5 0.5 0 0 1 691.5 255 L 691.5 245  Z " fill-rule="nonzero" fill="#f0f0f0" stroke="none" />
  <path d="M 691.5 245  A 0.5 0.5 0 0 1 692 244.5 L 702 244.5  A 0.5 0.5 0 0 1 702.5 245 L 702.5 255  A 0.5 0.5 0 0 1 702 255.5 L 692 255.5  A 0.5 0.5 0 0 1 691.5 255 L 691.5 245  Z " stroke-width="1" stroke="#797979" fill="none" />
  <path d="M 693.571428571429 250  L 696.142857142857 252.571428571429  L 700.428571428571 246.571428571429  " stroke-width="2.57142857142857" stroke="#797979" fill="none" />
</svg>