<?xml version="1.0" encoding="utf-8"?>
<svg version="1.1" xmlns:xlink="http://www.w3.org/1999/xlink" width="12px" height="12px" viewBox="263 244  12 12" xmlns="http://www.w3.org/2000/svg">
  <path d="M 263.5 245  A 0.5 0.5 0 0 1 264 244.5 L 274 244.5  A 0.5 0.5 0 0 1 274.5 245 L 274.5 255  A 0.5 0.5 0 0 1 274 255.5 L 264 255.5  A 0.5 0.5 0 0 1 263.5 255 L 263.5 245  Z " fill-rule="nonzero" fill="#ffffff" stroke="none" />
  <path d="M 263.5 245  A 0.5 0.5 0 0 1 264 244.5 L 274 244.5  A 0.5 0.5 0 0 1 274.5 245 L 274.5 255  A 0.5 0.5 0 0 1 274 255.5 L 264 255.5  A 0.5 0.5 0 0 1 263.5 255 L 263.5 245  Z " stroke-width="1" stroke="#797979" fill="none" />
</svg>