<?xml version="1.0" encoding="utf-8"?>
<svg version="1.1" xmlns:xlink="http://www.w3.org/1999/xlink" width="12px" height="12px" viewBox="263 217  12 12" xmlns="http://www.w3.org/2000/svg">
  <path d="M 269 217  C 272.36 217  275 219.64  275 223  C 275 226.36  272.36 229  269 229  C 265.64 229  263 226.36  263 223  C 263 219.64  265.64 217  269 217  Z " fill-rule="nonzero" fill="#f0f0f0" stroke="none" />
  <path d="M 269 217.5  C 272.08 217.5  274.5 219.92  274.5 223  C 274.5 226.08  272.08 228.5  269 228.5  C 265.92 228.5  263.5 226.08  263.5 223  C 263.5 219.92  265.92 217.5  269 217.5  Z " stroke-width="1" stroke="#797979" fill="none" />
  <path d="M 269 226  C 267.32 226  266 224.68  266 223  C 266 221.32  267.32 220  269 220  C 270.68 220  272 221.32  272 223  C 272 224.68  270.68 226  269 226  " fill-rule="nonzero" fill="#797979" stroke="none" />
</svg>