<?xml version="1.0" encoding="utf-8"?>
<svg version="1.1" xmlns:xlink="http://www.w3.org/1999/xlink" width="12px" height="12px" viewBox="263 273  12 12" xmlns="http://www.w3.org/2000/svg">
  <path d="M 263.5 274  A 0.5 0.5 0 0 1 264 273.5 L 274 273.5  A 0.5 0.5 0 0 1 274.5 274 L 274.5 284  A 0.5 0.5 0 0 1 274 284.5 L 264 284.5  A 0.5 0.5 0 0 1 263.5 284 L 263.5 274  Z " fill-rule="nonzero" fill="#f0f0f0" stroke="none" />
  <path d="M 263.5 274  A 0.5 0.5 0 0 1 264 273.5 L 274 273.5  A 0.5 0.5 0 0 1 274.5 274 L 274.5 284  A 0.5 0.5 0 0 1 274 284.5 L 264 284.5  A 0.5 0.5 0 0 1 263.5 284 L 263.5 274  Z " stroke-width="1" stroke="#797979" fill="none" />
  <path d="M 265.571428571429 279  L 268.142857142857 281.571428571429  L 272.428571428571 275.571428571429  " stroke-width="2.57142857142857" stroke="#797979" fill="none" />
</svg>