<?xml version="1.0" encoding="utf-8"?>
<svg version="1.1" xmlns:xlink="http://www.w3.org/1999/xlink" width="12px" height="12px" viewBox="418 215  12 12" xmlns="http://www.w3.org/2000/svg">
  <path d="M 418.5 216  A 0.5 0.5 0 0 1 419 215.5 L 429 215.5  A 0.5 0.5 0 0 1 429.5 216 L 429.5 226  A 0.5 0.5 0 0 1 429 226.5 L 419 226.5  A 0.5 0.5 0 0 1 418.5 226 L 418.5 216  Z " fill-rule="nonzero" fill="#ffffff" stroke="none" />
  <path d="M 418.5 216  A 0.5 0.5 0 0 1 419 215.5 L 429 215.5  A 0.5 0.5 0 0 1 429.5 216 L 429.5 226  A 0.5 0.5 0 0 1 429 226.5 L 419 226.5  A 0.5 0.5 0 0 1 418.5 226 L 418.5 216  Z " stroke-width="1" stroke="#797979" fill="none" />
</svg>