<?xml version="1.0" encoding="utf-8"?>
<svg version="1.1" xmlns:xlink="http://www.w3.org/1999/xlink" width="12px" height="12px" viewBox="111 247  12 12" xmlns="http://www.w3.org/2000/svg">
  <path d="M 117 247  C 120.36 247  123 249.64  123 253  C 123 256.36  120.36 259  117 259  C 113.64 259  111 256.36  111 253  C 111 249.64  113.64 247  117 247  Z " fill-rule="nonzero" fill="#ffffff" stroke="none" />
  <path d="M 117 247.5  C 120.08 247.5  122.5 249.92  122.5 253  C 122.5 256.08  120.08 258.5  117 258.5  C 113.92 258.5  111.5 256.08  111.5 253  C 111.5 249.92  113.92 247.5  117 247.5  Z " stroke-width="1" stroke="#797979" fill="none" />
  <path d="M 117 256  C 115.32 256  114 254.68  114 253  C 114 251.32  115.32 250  117 250  C 118.68 250  120 251.32  120 253  C 120 254.68  118.68 256  117 256  " fill-rule="nonzero" fill="#797979" stroke="none" />
</svg>