<?xml version="1.0" encoding="utf-8"?>
<svg version="1.1" xmlns:xlink="http://www.w3.org/1999/xlink" width="12px" height="12px" viewBox="418 244  12 12" xmlns="http://www.w3.org/2000/svg">
  <path d="M 418.5 245  A 0.5 0.5 0 0 1 419 244.5 L 429 244.5  A 0.5 0.5 0 0 1 429.5 245 L 429.5 255  A 0.5 0.5 0 0 1 429 255.5 L 419 255.5  A 0.5 0.5 0 0 1 418.5 255 L 418.5 245  Z " fill-rule="nonzero" fill="#f0f0f0" stroke="none" />
  <path d="M 418.5 245  A 0.5 0.5 0 0 1 419 244.5 L 429 244.5  A 0.5 0.5 0 0 1 429.5 245 L 429.5 255  A 0.5 0.5 0 0 1 429 255.5 L 419 255.5  A 0.5 0.5 0 0 1 418.5 255 L 418.5 245  Z " stroke-width="1" stroke="#797979" fill="none" />
  <path d="M 420.571428571429 250  L 423.142857142857 252.571428571429  L 427.428571428571 246.571428571429  " stroke-width="2.57142857142857" stroke="#797979" fill="none" />
</svg>